<svg version="1.2" xmlns="http://www.w3.org/2000/svg" viewBox="0 0 800 800" width="456" height="456">
	<title>acer-svgrepo-com</title>
	<style>
		.s0 { fill: #085301 } 
	</style>
	<path class="s0" d="m798.1 312.1c-2.8-3.7-5.7-6.6-19.8-7.5-3.8 0-15.1-1-35-1-52 0-87.8 16.1-105.8 47.3 4.7-31.2-25.5-47.3-91.6-47.3-77.5 0-126.6 31.2-146.5 94.5-7.5 23.6-7.5 42.5-1.8 57.7h-18.9c-14.2 0.9-33.1 1.8-45.4 1.8-28.3 0-46.3-4.7-52.9-14.1-5.7-8.5-5.7-24.6 1.9-48.2 12.3-38.8 41.6-55.8 88.8-55.8 24.6 0 48.2 2.9 48.2 2.9 2.8 0 4.7-3.8 4.7-6.6l-0.9-2.9-1.9-13.2c-1-8.5-7.6-13.2-18.9-15.1-10.4-1-18.9-1-30.3-1h-0.9c-61.4 0-104.9 20.8-128.5 60.5 8.5-40.6-19.8-60.5-85-60.5-36.8 0-63.3 1-78.4 2.9-12.3 1.9-19.9 6.6-22.7 15.1l-5.7 17c-0.9 2.8 1 4.7 4.8 4.7 2.8 0 14.1-1.9 33-2.8q7-0.6 13.9-1.1 7-0.5 14-0.8 6.9-0.4 13.9-0.6 7-0.2 14-0.4c35.9 0 51.9 9.5 46.3 27.4-1 3.8-3.8 6.7-8.5 7.6-34 5.7-61.4 9.5-81.3 12.3-56.7 7.5-89.7 24.5-98.2 52.9-12.3 38.7 17.9 57.6 90.6 57.6 36 0 67.1-1.9 91.7-6.6 14.2-2.8 21.7-5.7 24.6-15.1l13.2-43.5c-1 43.5 28.3 65.2 90.7 65.2 26.4 0 51.9-0.9 64.2-2.8 12.3-1.9 18.9-4.7 21.7-14.2l2.9-13.2c13.2 20.8 42.5 31.2 86.9 31.2 47.2 0 74.6-1 82.2-3.8q2-0.5 3.9-1.4 1.9-1 3.5-2.3 1.6-1.4 2.8-3.1 1.3-1.7 2.1-3.6l0.9-2.8 5.7-18c0.9-2.8-1-4.7-4.8-4.7l-30.2 1.9c-19.8 0.9-35.9 1.9-47.2 1.9-21.7 0-35.9-1.9-44.4-4.8-12.3-4.7-18-13.2-17-27.4l95.4-12.2c42.5-5.7 71.8-18.9 86-39.7l-33.1 110.5c-0.9 1.9 0 3.8 0.9 4.7 1 1 2.9 1.9 6.7 1.9h39.6c6.6 0 9.5-3.8 10.4-6.6l35-121.9c4.7-16 18.9-23.6 45.3-23.6 23.7 0 40.7 0 52 1h0.9c1.9 0 5.7-1 8.5-5.7l5.7-17c0-2.8 0-5.7-1.9-7.6zm-636.7 145.6c-12.3 1.9-30.3 2.8-52.9 2.8-40.7 0-57.7-8.5-52.9-24.6 3.7-11.3 14.1-18.9 31.1-20.8l91.7-12.2zm422.3-98.4c-3.8 12.3-21.7 20.8-53.9 25.6l-76.5 10.3 1.9-6.6c6.6-20.8 15.1-34 26.5-41.5q17-11.4 56.6-11.4c35 1 50.1 8.5 45.4 23.6z"/>
</svg>